<?xml version="1.0" encoding="UTF-8"?>
<svg xmlns="http://www.w3.org/2000/svg">
<symbol id="icon-search" viewBox="0 0 24 24"><path d="M11 4a7 7 0 1 1 0 14 7 7 0 0 1 0-14zm0-2a9 9 0 1 0 5.64 16.03l3.83 3.83 1.41-1.41-3.83-3.83A9 9 0 0 0 11 2z"/></symbol>
<symbol id="icon-filter" viewBox="0 0 24 24"><path d="M3 5h18v2H3V5zm4 6h10v2H7v-2zm3 6h4v2h-4v-2z"/></symbol>
<symbol id="icon-x" viewBox="0 0 24 24"><path d="M18.3 5.71 12 12l6.3 6.29-1.42 1.42L10.59 13.4 4.29 19.7 2.87 18.3 9.17 12 2.87 5.71 4.29 4.29l6.3 6.3 6.29-6.3 1.42 1.42z"/></symbol>
<symbol id="icon-chevron" viewBox="0 0 24 24"><path d="M7.41 8.59 12 13.17l4.59-4.58L18 10l-6 6-6-6 1.41-1.41z"/></symbol>
</svg>